# xmcd CD database file
#
# Track frame offsets:
#	150
#	17860
#	33066
#	45792
#	65296
#	81670
#	98625
#	116237
#	133845
#	151875
#	169624
#	188175
#
# Disc length: 2700 seconds
#
# Revision: 0
# Processed by: cddbd v1.5.2PL0 Copyright (c) Steve Scherf et al.
# Submitted via: CDex 1.51
#
DISCID=930a8a0c
DTITLE=Gina Williams - Brilliant Blue
DYEAR=2009
DGENRE=Jazz
TTITLE0=Moving On
TTITLE1=One Good Reason
TTITLE2=Fragile
TTITLE3=Don't Say a Word
TTITLE4=Absence of You
TTITLE5=Skin Deep
TTITLE6=Mr Neville
TTITLE7=Blown Away
TTITLE8=Brilliant Blue
TTITLE9=Your Eyes
TTITLE10=Freedom
TTITLE11=Outside Dreams
EXTD=YEAR: 2009
EXTT0=
EXTT1=
EXTT2=
EXTT3=
EXTT4=
EXTT5=
EXTT6=
EXTT7=
EXTT8=
EXTT9=
EXTT10=
EXTT11=
PLAYORDER=
